<svg width="116" height="42" viewBox="0 0 116 42" fill="none" xmlns="http://www.w3.org/2000/svg">
<rect x="31" width="85" height="38" rx="6" fill="#8F3600"/>
<path d="M47.5376 16.6172C47.4912 16.183 47.2957 15.8449 46.951 15.603C46.6096 15.361 46.1655 15.2401 45.6186 15.2401C45.2341 15.2401 44.9044 15.2981 44.6293 15.4141C44.3542 15.5301 44.1437 15.6875 43.9979 15.8864C43.852 16.0852 43.7775 16.3123 43.7741 16.5675C43.7741 16.7796 43.8222 16.9635 43.9183 17.1193C44.0178 17.2751 44.152 17.4077 44.321 17.517C44.4901 17.6231 44.6773 17.7126 44.8828 17.7855C45.0883 17.8584 45.2955 17.9197 45.5043 17.9695L46.4588 18.2081C46.8433 18.2976 47.2128 18.4186 47.5675 18.571C47.9254 18.7235 48.2453 18.9157 48.527 19.1477C48.812 19.3797 49.0374 19.6598 49.2031 19.9879C49.3688 20.3161 49.4517 20.7005 49.4517 21.1413C49.4517 21.7379 49.2992 22.2633 48.9943 22.7173C48.6894 23.1681 48.2486 23.5211 47.6719 23.7763C47.0985 24.0282 46.4041 24.1541 45.5888 24.1541C44.7966 24.1541 44.1089 24.0315 43.5256 23.7862C42.9455 23.541 42.4915 23.183 42.1634 22.7124C41.8385 22.2417 41.6629 21.6683 41.6364 20.9922H43.451C43.4775 21.3468 43.5869 21.6418 43.7791 21.8771C43.9714 22.1125 44.2216 22.2881 44.5298 22.4041C44.8414 22.5201 45.1894 22.5781 45.5739 22.5781C45.9749 22.5781 46.3262 22.5185 46.6278 22.3991C46.9328 22.2765 47.1714 22.1075 47.3438 21.892C47.5161 21.6733 47.6039 21.4181 47.6072 21.1264C47.6039 20.8613 47.526 20.6425 47.3736 20.4702C47.2211 20.2945 47.0073 20.1487 46.7322 20.0327C46.4605 19.9134 46.1423 19.8073 45.7777 19.7145L44.6193 19.4162C43.7808 19.2008 43.1179 18.8743 42.6307 18.4368C42.1468 17.996 41.9048 17.411 41.9048 16.6818C41.9048 16.0819 42.0672 15.5566 42.392 15.1058C42.7202 14.6551 43.166 14.3054 43.7294 14.0568C44.2929 13.8049 44.9309 13.679 45.6435 13.679C46.366 13.679 46.9991 13.8049 47.5426 14.0568C48.0895 14.3054 48.5187 14.6518 48.8303 15.0959C49.1418 15.5367 49.3026 16.0438 49.3125 16.6172H47.5376ZM53.214 24.1541C52.7301 24.1541 52.2942 24.0679 51.9064 23.8956C51.522 23.7199 51.217 23.4614 50.9917 23.12C50.7696 22.7786 50.6586 22.3577 50.6586 21.8572C50.6586 21.4264 50.7381 21.0701 50.8972 20.7884C51.0563 20.5066 51.2734 20.2812 51.5485 20.1122C51.8236 19.9432 52.1335 19.8156 52.4782 19.7294C52.8262 19.6399 53.1858 19.5753 53.557 19.5355C54.0044 19.4891 54.3674 19.4477 54.6458 19.4112C54.9242 19.3714 55.1264 19.3118 55.2523 19.2322C55.3816 19.1494 55.4462 19.0218 55.4462 18.8494V18.8196C55.4462 18.4451 55.3352 18.1551 55.1131 17.9496C54.891 17.7441 54.5712 17.6413 54.1536 17.6413C53.7128 17.6413 53.3631 17.7375 53.1046 17.9297C52.8494 18.1219 52.677 18.349 52.5875 18.6108L50.9071 18.3722C51.0397 17.9081 51.2585 17.5204 51.5634 17.2088C51.8683 16.8939 52.2412 16.6586 52.682 16.5028C53.1228 16.3438 53.61 16.2642 54.1436 16.2642C54.5115 16.2642 54.8778 16.3073 55.2424 16.3935C55.6069 16.4796 55.94 16.6222 56.2417 16.821C56.5433 17.0166 56.7852 17.2834 56.9675 17.6214C57.1531 17.9595 57.2459 18.3821 57.2459 18.8892V24H55.5158V22.951H55.4561C55.3468 23.1631 55.1926 23.362 54.9938 23.5476C54.7982 23.7299 54.5513 23.8774 54.253 23.9901C53.958 24.0994 53.6117 24.1541 53.214 24.1541ZM53.6813 22.8317C54.0426 22.8317 54.3558 22.7604 54.6209 22.6179C54.8861 22.4721 55.0899 22.2798 55.2324 22.0412C55.3783 21.8026 55.4512 21.5424 55.4512 21.2607V20.3608C55.3948 20.4072 55.2987 20.4503 55.1628 20.4901C55.0302 20.5298 54.8811 20.5646 54.7154 20.5945C54.5497 20.6243 54.3856 20.6508 54.2232 20.674C54.0608 20.6972 53.9199 20.7171 53.8006 20.7337C53.5321 20.7701 53.2918 20.8298 53.0797 20.9126C52.8676 20.9955 52.7002 21.1115 52.5776 21.2607C52.455 21.4065 52.3936 21.5954 52.3936 21.8274C52.3936 22.1589 52.5146 22.4091 52.7566 22.5781C52.9985 22.7472 53.3068 22.8317 53.6813 22.8317ZM65.6032 16.3636L62.8837 24H60.8951L58.1756 16.3636H60.0946L61.8496 22.0362H61.9292L63.6891 16.3636H65.6032ZM69.9695 24.1491C69.2038 24.1491 68.5426 23.9901 67.9858 23.6719C67.4323 23.3504 67.0064 22.8963 66.7081 22.3097C66.4098 21.7197 66.2607 21.0253 66.2607 20.2266C66.2607 19.4411 66.4098 18.7517 66.7081 18.1584C67.0097 17.5618 67.4306 17.0978 67.9709 16.7663C68.5111 16.4316 69.1458 16.2642 69.875 16.2642C70.3456 16.2642 70.7898 16.3404 71.2074 16.4929C71.6283 16.642 71.9995 16.8741 72.321 17.1889C72.6458 17.5038 72.901 17.9048 73.0866 18.392C73.2723 18.8759 73.3651 19.4527 73.3651 20.1222V20.674H67.1058V19.4609H71.6399C71.6366 19.1162 71.562 18.8097 71.4162 18.5412C71.2704 18.2694 71.0665 18.0556 70.8047 17.8999C70.5462 17.7441 70.2446 17.6662 69.8999 17.6662C69.532 17.6662 69.2088 17.7557 68.9304 17.9347C68.652 18.1103 68.4349 18.3423 68.2791 18.6307C68.1267 18.9157 68.0488 19.2289 68.0455 19.5703V20.6293C68.0455 21.0734 68.1267 21.4545 68.2891 21.7727C68.4515 22.0876 68.6785 22.3295 68.9702 22.4986C69.2618 22.6643 69.6032 22.7472 69.9943 22.7472C70.2562 22.7472 70.4931 22.7107 70.7053 22.6378C70.9174 22.5616 71.1013 22.4505 71.2571 22.3047C71.4129 22.1589 71.5305 21.9782 71.6101 21.7628L73.2905 21.9517C73.1844 22.3958 72.9822 22.7836 72.6839 23.1151C72.389 23.4432 72.0111 23.6984 71.5504 23.8807C71.0897 24.0597 70.5627 24.1491 69.9695 24.1491ZM82.4817 13.8182V24H80.6373V15.6129H80.5776L78.1962 17.1342V15.4439L80.7267 13.8182H82.4817ZM88.8304 24.1939C88.0118 24.1939 87.3091 23.9867 86.7225 23.5724C86.1391 23.1548 85.69 22.5533 85.3752 21.7678C85.0636 20.9789 84.9078 20.0294 84.9078 18.919C84.9112 17.8087 85.0686 16.8641 85.3801 16.0852C85.695 15.303 86.1441 14.7064 86.7275 14.2955C87.3141 13.8845 88.0151 13.679 88.8304 13.679C89.6458 13.679 90.3468 13.8845 90.9334 14.2955C91.5201 14.7064 91.9692 15.303 92.2807 16.0852C92.5956 16.8674 92.753 17.812 92.753 18.919C92.753 20.0327 92.5956 20.9839 92.2807 21.7727C91.9692 22.5582 91.5201 23.1581 90.9334 23.5724C90.3501 23.9867 89.6491 24.1939 88.8304 24.1939ZM88.8304 22.6378C89.4668 22.6378 89.9689 22.3246 90.3368 21.6982C90.708 21.0684 90.8936 20.142 90.8936 18.919C90.8936 18.1103 90.8091 17.4309 90.6401 16.8807C90.4711 16.3305 90.2324 15.9162 89.9242 15.6378C89.6159 15.3561 89.2514 15.2152 88.8304 15.2152C88.1974 15.2152 87.6969 15.5301 87.329 16.1598C86.9611 16.7862 86.7755 17.706 86.7722 18.919C86.7689 19.7311 86.8501 20.4138 87.0158 20.9673C87.1848 21.5208 87.4235 21.9384 87.7317 22.2202C88.04 22.4986 88.4062 22.6378 88.8304 22.6378ZM99.8487 22.0909V21.554C99.8487 21.1596 99.9316 20.7966 100.097 20.4652C100.266 20.1338 100.512 19.867 100.833 19.6648C101.155 19.4626 101.544 19.3615 102.001 19.3615C102.472 19.3615 102.866 19.4626 103.185 19.6648C103.503 19.8636 103.743 20.1288 103.906 20.4602C104.071 20.7917 104.154 21.1562 104.154 21.554V22.0909C104.154 22.4853 104.071 22.8482 103.906 23.1797C103.74 23.5111 103.496 23.7779 103.175 23.9801C102.857 24.1823 102.465 24.2834 102.001 24.2834C101.537 24.2834 101.145 24.1823 100.823 23.9801C100.502 23.7779 100.258 23.5111 100.092 23.1797C99.9299 22.8482 99.8487 22.4853 99.8487 22.0909ZM101.146 21.554V22.0909C101.146 22.3527 101.209 22.593 101.335 22.8118C101.461 23.0305 101.683 23.1399 102.001 23.1399C102.323 23.1399 102.543 23.0322 102.663 22.8168C102.785 22.598 102.847 22.3561 102.847 22.0909V21.554C102.847 21.2888 102.789 21.0469 102.673 20.8281C102.557 20.6061 102.333 20.495 102.001 20.495C101.69 20.495 101.469 20.6061 101.34 20.8281C101.211 21.0469 101.146 21.2888 101.146 21.554ZM94.6733 16.2642V15.7273C94.6733 15.3295 94.7578 14.965 94.9268 14.6335C95.0959 14.3021 95.3411 14.0369 95.6626 13.8381C95.9841 13.6359 96.3736 13.5348 96.831 13.5348C97.2983 13.5348 97.6911 13.6359 98.0092 13.8381C98.3307 14.0369 98.5727 14.3021 98.7351 14.6335C98.8975 14.965 98.9787 15.3295 98.9787 15.7273V16.2642C98.9787 16.6619 98.8958 17.0265 98.7301 17.358C98.5677 17.6861 98.3258 17.9496 98.0043 18.1484C97.6828 18.3473 97.2917 18.4467 96.831 18.4467C96.3636 18.4467 95.9692 18.3473 95.6477 18.1484C95.3295 17.9496 95.0876 17.6844 94.9219 17.353C94.7562 17.0215 94.6733 16.6586 94.6733 16.2642ZM95.9808 15.7273V16.2642C95.9808 16.5294 96.0421 16.7713 96.1648 16.9901C96.2907 17.2055 96.5128 17.3132 96.831 17.3132C97.1491 17.3132 97.3679 17.2055 97.4872 16.9901C97.6098 16.7713 97.6712 16.5294 97.6712 16.2642V15.7273C97.6712 15.4621 97.6132 15.2202 97.4972 15.0014C97.3812 14.7794 97.1591 14.6683 96.831 14.6683C96.5161 14.6683 96.2957 14.7794 96.1697 15.0014C96.0438 15.2235 95.9808 15.4654 95.9808 15.7273ZM95.2401 24L102.24 13.8182H103.483L96.483 24H95.2401Z" fill="white"/>
<g clip-path="url(#clip0_2001_770)">
<mask id="mask0_2001_770" style="mask-type:luminance" maskUnits="userSpaceOnUse" x="0" y="15" width="21" height="27">
<path d="M20.5 15H0.5V42H20.5V15Z" fill="white"/>
</mask>
<g mask="url(#mask0_2001_770)">
<path d="M20.1051 15.0541C15.5869 14.7701 10.3255 15.541 7.01734 19.0639C4.07094 22.2014 3.80129 26.8197 4.847 30.8498C5.63622 33.8994 7.10942 36.6988 8.83253 39.2953C9.81905 40.7761 12.1867 39.3629 11.187 37.8821C8.76019 34.2983 6.39255 29.8964 6.59643 25.3862C6.75427 21.8024 9.01668 19.0977 12.0946 17.6304C14.5346 16.4606 17.4547 16.0887 20.1117 15.8994C20.6313 15.8655 20.6379 15.0947 20.1117 15.0677L20.1051 15.0541Z" fill="#001B66"/>
<path d="M0.598201 36.0699C1.2493 36.7867 1.97933 37.3411 2.78169 37.8686C3.58406 38.396 4.33381 38.9572 5.14934 39.4373C6.84615 40.4313 8.63503 41.2157 10.4502 41.9324C11.0092 42.1556 11.7195 41.7837 12.0089 41.2833C12.8771 39.7483 13.6071 38.112 14.3437 36.5027C14.712 35.698 15.0869 34.8866 15.442 34.0752C15.8432 33.1691 16.2378 32.2765 16.1654 31.2622C16.126 30.6942 15.5078 30.1871 14.975 30.559C13.515 31.5868 12.8771 33.5883 12.0944 35.1503C11.3118 36.7123 10.4305 38.2743 9.62155 39.8498L11.1802 39.2006C9.45055 38.5988 7.74059 37.9294 6.02405 37.287C5.19537 36.976 4.34697 36.7326 3.53145 36.3809C2.66989 36.0158 1.84121 35.6845 0.933617 35.4681C0.591624 35.387 0.348283 35.7994 0.591624 36.0699H0.598201Z" fill="#001B66"/>
</g>
</g>
<defs>
<clipPath id="clip0_2001_770">
<rect width="21" height="27" fill="white" transform="translate(0 15)"/>
</clipPath>
</defs>
</svg>
