<svg width="121" height="40" viewBox="0 0 121 40" fill="none" xmlns="http://www.w3.org/2000/svg">
<g clip-path="url(#clip0_315_636)">
<path d="M113.931 33.1268H121L109.517 18.5747L120.364 6.87329H113.631L102.036 19.1383V6.87329H96.0142V33.1268H102.037V26.4885L105.553 22.8131L113.931 33.1268Z" fill="white"/>
<path d="M95.2035 33.127L89.3304 24.688C92.7348 23.225 94.7173 20.3371 94.7173 16.399C94.7173 10.5111 90.34 6.87366 83.3465 6.87366H72.011V33.127H78.0706V25.8135H83.6439L88.6947 33.1273L95.2035 33.127ZM88.5828 16.399C88.5828 19.2499 86.7122 20.9748 83.0086 20.9748H78.0713V11.8242H83.0086C86.7122 11.8241 88.5828 13.5111 88.5828 16.399Z" fill="white"/>
<path d="M64.9056 33.1271H71.2642L59.5565 6.87378H53.5717L41.901 33.1271H48.1107L50.4293 27.5008H62.5864L64.9056 33.1271ZM52.375 22.8884L56.527 12.8366L60.6791 22.8884H52.375Z" fill="white"/>
<path fill-rule="evenodd" clip-rule="evenodd" d="M20.6824 22.6481H14.3124L13.622 25.2345H13.6211L11.8939 31.7017L17.498 34.9459L23.102 31.7017L22.4585 29.2939L21.3742 25.234L20.6824 22.6481ZM15.4829 18.2697H19.5127L17.4978 10.7313L15.4829 18.2697ZM4.36551 22.6481V27.3438L7.97838 29.4354L9.67437 23.0934L9.7967 22.648L4.36551 22.6481ZM25.1731 22.6481L25.2954 23.0935L25.3104 23.0512L27.0165 29.4355L30.6294 27.3439V22.6481H25.1731ZM15.8447 0H19.1507C20.7933 6.14587 22.3414 12.1461 23.9676 18.2694H34.9954V22.6479H34.9795L34.9954 29.8708L17.4973 40.0003L0 29.8714V18.2697H11.0014C12.6241 12.162 14.2107 6.11802 15.8447 0Z" fill="#E71623"/>
</g>
<defs>
<clipPath id="clip0_315_636">
<rect width="121" height="40" fill="white"/>
</clipPath>
</defs>
</svg>
