<svg width="50" height="77" viewBox="0 0 50 77" fill="none" xmlns="http://www.w3.org/2000/svg">
<path d="M44.5845 76.2497H48.9599L41.8525 67.2426L48.5665 60H44.3991L37.222 67.5914V60H33.4949V76.2497H37.2227V72.1409L39.3989 69.866L44.5845 76.2497Z" fill="#2B140B"/>
<path d="M32.9916 76.2498L29.3564 71.0265C31.4636 70.121 32.6906 68.3335 32.6906 65.896C32.6906 62.2517 29.9813 60.0002 25.6526 60.0002H18.6365V76.2498H22.3871V71.7231H25.8367L28.9629 76.25L32.9916 76.2498ZM28.8937 65.896C28.8937 67.6606 27.7358 68.7282 25.4435 68.7282H22.3875V63.0644H25.4435C27.7358 63.0643 28.8937 64.1085 28.8937 65.896Z" fill="#2B140B"/>
<path d="M14.2388 76.2498H18.1745L10.928 60.0002H7.22362L0 76.2498H3.84354L5.27862 72.7674H12.8033L14.2388 76.2498ZM6.48293 69.9125L9.05281 63.691L11.6228 69.9125H6.48293Z" fill="#2B140B"/>
<path fill-rule="evenodd" clip-rule="evenodd" d="M30.0614 31.141H21.1878L20.226 34.6972H20.2247L17.8186 43.5896L25.6254 48.0503L33.432 43.5896L32.5357 40.2788L31.0251 34.6965L30.0614 31.141ZM22.8184 25.1207H28.432L25.6252 14.7555L22.8184 25.1207ZM7.33133 31.141V37.5974L12.3642 40.4734L14.7268 31.7532L14.8972 31.1408L7.33133 31.141ZM36.3171 31.141L36.4875 31.7533L36.5083 31.6952L38.8851 40.4736L43.9179 37.5976V31.141H36.3171ZM23.3223 0H27.9277C30.2159 8.45052 32.3725 16.7007 34.6378 25.1203H50V31.1406H49.9779L50 41.0721L25.6244 55L1.25 41.0728V25.1207H16.5754C18.8358 16.7226 21.0461 8.41223 23.3223 0Z" fill="#E71623"/>
</svg>
